<?xml version="1.0" standalone="no"?>
<!DOCTYPE svg PUBLIC "-//W3C//DTD SVG 20010904//EN"
 "http://www.w3.org/TR/2001/REC-SVG-20010904/DTD/svg10.dtd">
<svg version="1.0" xmlns="http://www.w3.org/2000/svg"
 width="500.000000pt" height="500.000000pt" viewBox="0 0 500.000000 500.000000"
 preserveAspectRatio="xMidYMid meet">
<metadata>
Created by potrace 1.14, written by Peter Selinger 2001-2017
</metadata>
<g transform="translate(0.000000,500.000000) scale(0.100000,-0.100000)"
fill="#000000" stroke="none">
<path d="M2898 4443 c-18 -16 -38 -32 -44 -38 -39 -35 -100 -89 -169 -150 -44
-38 -82 -72 -85 -75 -3 -3 -41 -37 -85 -75 -44 -39 -85 -74 -91 -80 -22 -20
-157 -141 -178 -158 -48 -42 -86 -75 -171 -151 -97 -87 -224 -199 -259 -229
-12 -10 -35 -31 -51 -45 -17 -15 -66 -58 -110 -97 -44 -38 -85 -74 -91 -80
-19 -18 -156 -139 -178 -158 -31 -28 -148 -131 -160 -142 -6 -5 -47 -41 -91
-80 -44 -38 -85 -74 -91 -80 -9 -8 -45 -40 -164 -145 -9 -8 -45 -40 -80 -70
-34 -30 -70 -62 -79 -70 -9 -9 -52 -47 -96 -85 -44 -39 -82 -72 -85 -75 -3 -3
-41 -37 -84 -75 -44 -39 -87 -77 -96 -85 -9 -8 -47 -42 -85 -75 -38 -33 -73
-65 -79 -70 -6 -6 -38 -34 -71 -62 l-60 -52 0 -663 c0 -365 3 -663 6 -663 5 0
129 110 198 175 25 23 177 162 265 240 22 19 51 46 66 60 15 14 49 45 76 69
27 25 72 65 99 90 28 25 93 84 145 131 52 47 120 108 150 136 30 27 77 70 104
95 27 24 57 51 66 59 9 8 85 78 170 155 201 181 227 205 259 235 15 14 65 59
111 100 46 41 95 86 109 99 14 13 64 58 110 100 46 42 93 85 105 96 12 11 60
54 106 95 45 41 99 90 119 109 20 18 56 51 81 73 25 22 82 74 127 115 46 42
93 84 105 95 13 11 61 54 108 97 47 43 107 99 135 124 l50 45 0 631 c0 347 -1
631 -2 631 -1 0 -16 -12 -35 -27z"/>
<path d="M4708 4354 c-73 -65 -135 -120 -138 -123 -3 -3 -36 -33 -75 -66 -38
-33 -72 -62 -75 -65 -3 -3 -43 -39 -90 -80 -46 -41 -98 -87 -115 -102 -16 -14
-39 -35 -51 -45 -12 -10 -54 -47 -94 -83 -40 -36 -81 -72 -90 -80 -9 -8 -45
-40 -80 -70 -35 -30 -75 -66 -90 -80 -15 -14 -56 -50 -91 -80 -35 -30 -88 -77
-119 -105 -57 -51 -186 -165 -224 -198 -12 -10 -37 -33 -56 -50 -20 -18 -71
-63 -115 -102 -44 -38 -82 -72 -85 -75 -3 -3 -41 -36 -85 -75 -44 -38 -82 -72
-85 -75 -3 -3 -61 -54 -130 -115 -69 -60 -127 -112 -130 -115 -3 -3 -41 -36
-85 -75 -44 -38 -85 -74 -91 -80 -18 -17 -132 -117 -244 -215 -34 -30 -68 -60
-74 -66 -6 -5 -49 -43 -96 -84 -47 -41 -94 -83 -104 -92 -19 -18 -20 -37 -20
-683 -1 -366 1 -665 4 -665 3 0 30 23 60 51 30 28 90 83 134 123 43 39 91 82
106 96 33 31 187 170 210 190 9 8 59 53 110 100 103 95 100 92 231 210 51 47
118 108 149 135 30 28 59 55 66 60 25 23 171 155 195 176 128 118 214 196 229
209 14 13 133 120 218 197 13 13 63 58 110 100 95 86 96 87 212 193 46 41 91
82 100 90 14 13 123 111 229 208 14 13 62 56 105 95 44 40 87 79 96 87 9 8 58
53 110 100 52 47 117 106 145 132 l50 47 1 630 c0 347 -1 631 -2 631 -2 0 -63
-52 -136 -116z"/>
</g>
</svg>
